# WaveFront *.obj file (generated by Autodesk ATF)

mtllib Plastic card.mtl

g Solid1

v -1.062500 0.000000 -1.490650
v -1.062500 0.000000 1.490650
v -1.062500 0.039370 -1.490650
v -1.062500 0.039370 1.490650
v -1.055792 0.000000 -1.541598
v -1.055792 0.000000 1.541598
v -1.055792 0.039370 -1.541598
v -1.055792 0.039370 1.541598
v -1.036127 0.000000 -1.589075
v -1.036127 0.000000 1.589075
v -1.036127 0.039370 -1.589075
v -1.036127 0.039370 1.589075
v -1.004844 0.000000 -1.629844
v -1.004844 0.000000 1.629844
v -1.004844 0.039370 -1.629844
v -1.004844 0.039370 1.629844
v -0.964075 0.000000 -1.661127
v -0.964075 0.000000 1.661127
v -0.964075 0.039370 -1.661127
v -0.964075 0.039370 1.661127
v -0.916598 0.000000 -1.680792
v -0.916598 0.000000 1.680792
v -0.916598 0.039370 -1.680792
v -0.916598 0.039370 1.680792
v -0.865650 0.000000 -1.687500
v -0.865650 0.000000 1.687500
v -0.865650 0.039370 -1.687500
v -0.865650 0.039370 1.687500
v 0.865650 0.000000 -1.687500
v 0.865650 0.000000 1.687500
v 0.865650 0.039370 -1.687500
v 0.865650 0.039370 1.687500
v 0.916598 0.000000 -1.680792
v 0.916598 0.000000 1.680792
v 0.916598 0.039370 -1.680792
v 0.916598 0.039370 1.680792
v 0.964075 0.000000 -1.661127
v 0.964075 0.000000 1.661127
v 0.964075 0.039370 -1.661127
v 0.964075 0.039370 1.661127
v 1.004844 0.000000 -1.629844
v 1.004844 0.000000 1.629844
v 1.004844 0.039370 -1.629844
v 1.004844 0.039370 1.629844
v 1.036127 0.000000 -1.589075
v 1.036127 0.000000 1.589075
v 1.036127 0.039370 -1.589075
v 1.036127 0.039370 1.589075
v 1.055792 0.000000 -1.541598
v 1.055792 0.000000 1.541598
v 1.055792 0.039370 -1.541598
v 1.055792 0.039370 1.541598
v 1.062500 0.000000 -1.490650
v 1.062500 0.000000 1.490650
v 1.062500 0.039370 -1.490650
v 1.062500 0.039370 1.490650
vt -0.100000 0.392699 0.000000
vt -0.100000 0.261799 0.000000
vt -0.100000 0.130900 0.000000
vt -0.100000 0.000000 0.000000
vt -0.100000 -0.130900 0.000000
vt -0.100000 -0.261799 0.000000
vt -0.100000 -0.392699 0.000000
vt -0.000000 -0.392699 0.000000
vt -0.000000 -0.261799 0.000000
vt -0.000000 -0.130900 0.000000
vt -0.000000 0.000000 0.000000
vt -0.000000 0.130900 0.000000
vt -0.000000 0.261799 0.000000
vt -0.000000 0.392699 0.000000
vt 0.500000 0.100000 0.000000
vt 0.500000 0.000000 0.000000
vt 4.897500 0.000000 0.000000
vt 4.897500 0.100000 0.000000
vt 4.286250 2.198750 0.000000
vt 4.269213 2.328160 0.000000
vt 4.219263 2.448750 0.000000
vt 4.139803 2.552303 0.000000
vt 4.036250 2.631763 0.000000
vt 3.915659 2.681713 0.000000
vt 3.786250 2.698750 0.000000
vt -3.786250 2.698750 0.000000
vt -3.915659 2.681713 0.000000
vt -4.036250 2.631763 0.000000
vt -4.139803 2.552303 0.000000
vt -4.219263 2.448750 0.000000
vt -4.269213 2.328160 0.000000
vt -4.286250 2.198750 0.000000
vt -4.286250 -2.198750 0.000000
vt -4.269213 -2.328160 0.000000
vt -4.219263 -2.448750 0.000000
vt -4.139803 -2.552303 0.000000
vt -4.036250 -2.631763 0.000000
vt -3.915659 -2.681713 0.000000
vt -3.786250 -2.698750 0.000000
vt 3.786250 -2.698750 0.000000
vt 3.915659 -2.681713 0.000000
vt 4.036250 -2.631763 0.000000
vt 4.139803 -2.552303 0.000000
vt 4.219263 -2.448750 0.000000
vt 4.269213 -2.328160 0.000000
vt 4.286250 -2.198750 0.000000
vt -0.100000 0.392699 0.000000
vt -0.100000 0.261799 0.000000
vt -0.100000 0.130900 0.000000
vt -0.100000 0.000000 0.000000
vt -0.100000 -0.130900 0.000000
vt -0.100000 -0.261799 0.000000
vt -0.100000 -0.392699 0.000000
vt -0.000000 -0.392699 0.000000
vt -0.000000 -0.261799 0.000000
vt -0.000000 -0.130900 0.000000
vt -0.000000 0.000000 0.000000
vt -0.000000 0.130900 0.000000
vt -0.000000 0.261799 0.000000
vt -0.000000 0.392699 0.000000
vt 0.500000 0.100000 0.000000
vt 0.500000 0.000000 0.000000
vt 8.072500 0.000000 0.000000
vt 8.072500 0.100000 0.000000
vt -0.100000 0.392699 0.000000
vt -0.100000 0.261799 0.000000
vt -0.100000 0.130900 0.000000
vt -0.100000 0.000000 0.000000
vt -0.100000 -0.130900 0.000000
vt -0.100000 -0.261799 0.000000
vt -0.100000 -0.392699 0.000000
vt -0.000000 -0.392699 0.000000
vt -0.000000 -0.261799 0.000000
vt -0.000000 -0.130900 0.000000
vt -0.000000 0.000000 0.000000
vt -0.000000 0.130900 0.000000
vt -0.000000 0.261799 0.000000
vt -0.000000 0.392699 0.000000
vt 0.500000 0.100000 0.000000
vt 0.500000 0.000000 0.000000
vt 4.897500 0.000000 0.000000
vt 4.897500 0.100000 0.000000
vt -0.100000 0.392699 0.000000
vt -0.100000 0.261799 0.000000
vt -0.100000 0.130900 0.000000
vt -0.100000 0.000000 0.000000
vt -0.100000 -0.130900 0.000000
vt -0.100000 -0.261799 0.000000
vt -0.100000 -0.392699 0.000000
vt -0.000000 -0.392699 0.000000
vt -0.000000 -0.261799 0.000000
vt -0.000000 -0.130900 0.000000
vt -0.000000 0.000000 0.000000
vt -0.000000 0.130900 0.000000
vt -0.000000 0.261799 0.000000
vt -0.000000 0.392699 0.000000
vt 8.072500 0.000000 0.000000
vt 8.072500 0.100000 0.000000
vt 0.500000 0.100000 0.000000
vt 0.500000 0.000000 0.000000
vt -3.786250 2.698750 0.000000
vt -3.915659 2.681713 0.000000
vt -4.036250 2.631763 0.000000
vt -4.139803 2.552303 0.000000
vt -4.219263 2.448750 0.000000
vt -4.269213 2.328160 0.000000
vt -4.286250 2.198750 0.000000
vt -4.286250 -2.198750 0.000000
vt -4.269213 -2.328160 0.000000
vt -4.219263 -2.448750 0.000000
vt -4.139803 -2.552303 0.000000
vt -4.036250 -2.631763 0.000000
vt -3.915659 -2.681713 0.000000
vt -3.786250 -2.698750 0.000000
vt 3.786250 -2.698750 0.000000
vt 3.915659 -2.681713 0.000000
vt 4.036250 -2.631763 0.000000
vt 4.139803 -2.552303 0.000000
vt 4.219263 -2.448750 0.000000
vt 4.269213 -2.328160 0.000000
vt 4.286250 -2.198750 0.000000
vt 4.286250 2.198750 0.000000
vt 4.269213 2.328160 0.000000
vt 4.219263 2.448750 0.000000
vt 4.139803 2.552303 0.000000
vt 4.036250 2.631763 0.000000
vt 3.915659 2.681713 0.000000
vt 3.786250 2.698750 0.000000
vn 0.000000 0.000000 -2.540000
vn 0.657400 0.000000 -2.453452
vn 1.270000 0.000000 -2.199704
vn 1.796051 0.000000 -1.796051
vn 2.199704 0.000000 -1.270000
vn 2.453452 0.000000 -0.657400
vn 2.540000 0.000000 0.000000
vn 2.540000 0.000000 0.000000
vn 2.453452 0.000000 -0.657400
vn 2.199704 0.000000 -1.270000
vn 1.796051 0.000000 -1.796051
vn 1.270000 0.000000 -2.199704
vn 0.657400 0.000000 -2.453452
vn 0.000000 0.000000 -2.540000
vn 0.000000 0.000000 -2.540000
vn 0.000000 0.000000 -2.540000
vn 0.000000 0.000000 -2.540000
vn 0.000000 0.000000 -2.540000
vn 0.000000 -2.540000 0.000000
vn 0.000000 -2.540000 0.000000
vn 0.000000 -2.540000 0.000000
vn 0.000000 -2.540000 0.000000
vn 0.000000 -2.540000 0.000000
vn 0.000000 -2.540000 0.000000
vn 0.000000 -2.540000 0.000000
vn 0.000000 -2.540000 0.000000
vn 0.000000 -2.540000 0.000000
vn 0.000000 -2.540000 0.000000
vn 0.000000 -2.540000 0.000000
vn 0.000000 -2.540000 0.000000
vn 0.000000 -2.540000 0.000000
vn 0.000000 -2.540000 0.000000
vn 0.000000 -2.540000 0.000000
vn 0.000000 -2.540000 0.000000
vn 0.000000 -2.540000 0.000000
vn 0.000000 -2.540000 0.000000
vn 0.000000 -2.540000 0.000000
vn 0.000000 -2.540000 0.000000
vn 0.000000 -2.540000 0.000000
vn 0.000000 -2.540000 0.000000
vn 0.000000 -2.540000 0.000000
vn 0.000000 -2.540000 0.000000
vn 0.000000 -2.540000 0.000000
vn 0.000000 -2.540000 0.000000
vn 0.000000 -2.540000 0.000000
vn 0.000000 -2.540000 0.000000
vn -2.540000 0.000000 0.000000
vn -2.453452 0.000000 -0.657400
vn -2.199704 0.000000 -1.270000
vn -1.796051 0.000000 -1.796051
vn -1.270000 0.000000 -2.199704
vn -0.657400 0.000000 -2.453452
vn 0.000000 0.000000 -2.540000
vn 0.000000 0.000000 -2.540000
vn -0.657400 0.000000 -2.453452
vn -1.270000 0.000000 -2.199704
vn -1.796051 0.000000 -1.796051
vn -2.199704 0.000000 -1.270000
vn -2.453452 0.000000 -0.657400
vn -2.540000 0.000000 0.000000
vn -2.540000 0.000000 0.000000
vn -2.540000 0.000000 0.000000
vn -2.540000 0.000000 0.000000
vn -2.540000 0.000000 0.000000
vn 0.000000 0.000000 2.540000
vn -0.657400 0.000000 2.453452
vn -1.270000 0.000000 2.199704
vn -1.796051 0.000000 1.796051
vn -2.199704 0.000000 1.270000
vn -2.453452 0.000000 0.657400
vn -2.540000 0.000000 0.000000
vn -2.540000 0.000000 0.000000
vn -2.453452 0.000000 0.657400
vn -2.199704 0.000000 1.270000
vn -1.796051 0.000000 1.796051
vn -1.270000 0.000000 2.199704
vn -0.657400 0.000000 2.453452
vn 0.000000 0.000000 2.540000
vn 0.000000 0.000000 2.540000
vn 0.000000 0.000000 2.540000
vn 0.000000 0.000000 2.540000
vn 0.000000 0.000000 2.540000
vn 2.540000 0.000000 0.000000
vn 2.453452 0.000000 0.657400
vn 2.199704 0.000000 1.270000
vn 1.796051 0.000000 1.796051
vn 1.270000 0.000000 2.199704
vn 0.657400 0.000000 2.453452
vn 0.000000 0.000000 2.540000
vn 0.000000 0.000000 2.540000
vn 0.657400 0.000000 2.453452
vn 1.270000 0.000000 2.199704
vn 1.796051 0.000000 1.796051
vn 2.199704 0.000000 1.270000
vn 2.453452 0.000000 0.657400
vn 2.540000 0.000000 0.000000
vn 2.540000 0.000000 0.000000
vn 2.540000 0.000000 0.000000
vn 2.540000 0.000000 0.000000
vn 2.540000 0.000000 0.000000
vn 0.000000 2.540000 0.000000
vn 0.000000 2.540000 0.000000
vn 0.000000 2.540000 0.000000
vn 0.000000 2.540000 0.000000
vn 0.000000 2.540000 0.000000
vn 0.000000 2.540000 0.000000
vn 0.000000 2.540000 0.000000
vn 0.000000 2.540000 0.000000
vn 0.000000 2.540000 0.000000
vn 0.000000 2.540000 0.000000
vn 0.000000 2.540000 0.000000
vn 0.000000 2.540000 0.000000
vn 0.000000 2.540000 0.000000
vn 0.000000 2.540000 0.000000
vn 0.000000 2.540000 0.000000
vn 0.000000 2.540000 0.000000
vn 0.000000 2.540000 0.000000
vn 0.000000 2.540000 0.000000
vn 0.000000 2.540000 0.000000
vn 0.000000 2.540000 0.000000
vn 0.000000 2.540000 0.000000
vn 0.000000 2.540000 0.000000
vn 0.000000 2.540000 0.000000
vn 0.000000 2.540000 0.000000
vn 0.000000 2.540000 0.000000
vn 0.000000 2.540000 0.000000
vn 0.000000 2.540000 0.000000
vn 0.000000 2.540000 0.000000
usemtl 191,191,191
f 31/1/1 35/2/2 29/14/14
f 29/14/14 35/2/2 33/13/13
f 33/13/13 35/2/2 39/3/3
f 33/13/13 39/3/3 37/12/12
f 37/12/12 39/3/3 41/11/11
f 41/11/11 39/3/3 43/4/4
f 41/11/11 43/4/4 45/10/10
f 45/10/10 43/4/4 47/5/5
f 45/10/10 47/5/5 51/6/6
f 45/10/10 51/6/6 49/9/9
f 49/9/9 51/6/6 55/7/7
f 49/9/9 55/7/7 53/8/8
f 29/16/16 25/17/17 31/15/15
f 31/15/15 25/17/17 27/18/18
f 33/20/20 53/25/25 29/19/19
f 29/19/19 53/25/25 54/26/26
f 29/19/19 54/26/26 30/32/32
f 30/32/32 54/26/26 34/31/31
f 34/31/31 54/26/26 38/30/30
f 38/30/30 54/26/26 42/29/29
f 42/29/29 54/26/26 46/28/28
f 46/28/28 54/26/26 50/27/27
f 33/20/20 37/21/21 53/25/25
f 53/25/25 37/21/21 41/22/22
f 53/25/25 41/22/22 45/23/23
f 45/23/23 49/24/24 53/25/25
f 29/19/19 30/32/32 25/46/46
f 25/46/46 30/32/32 26/33/33
f 25/46/46 26/33/33 1/40/40
f 1/40/40 26/33/33 2/39/39
f 2/39/39 26/33/33 22/34/34
f 2/39/39 22/34/34 18/35/35
f 18/35/35 14/36/36 2/39/39
f 2/39/39 14/36/36 10/37/37
f 2/39/39 10/37/37 6/38/38
f 5/41/41 9/42/42 1/40/40
f 1/40/40 9/42/42 13/43/43
f 1/40/40 13/43/43 17/44/44
f 17/44/44 21/45/45 1/40/40
f 1/40/40 21/45/45 25/46/46
f 3/47/47 7/48/48 1/60/60
f 1/60/60 7/48/48 5/59/59
f 5/59/59 7/48/48 11/49/49
f 5/59/59 11/49/49 9/58/58
f 9/58/58 11/49/49 13/57/57
f 13/57/57 11/49/49 15/50/50
f 13/57/57 15/50/50 17/56/56
f 17/56/56 15/50/50 19/51/51
f 17/56/56 19/51/51 23/52/52
f 17/56/56 23/52/52 21/55/55
f 21/55/55 23/52/52 27/53/53
f 21/55/55 27/53/53 25/54/54
f 1/62/62 2/63/63 3/61/61
f 3/61/61 2/63/63 4/64/64
f 28/65/65 24/66/66 26/78/78
f 26/78/78 24/66/66 22/77/77
f 22/77/77 24/66/66 20/67/67
f 22/77/77 20/67/67 18/76/76
f 18/76/76 20/67/67 14/75/75
f 14/75/75 20/67/67 16/68/68
f 14/75/75 16/68/68 10/74/74
f 10/74/74 16/68/68 12/69/69
f 10/74/74 12/69/69 8/70/70
f 10/74/74 8/70/70 6/73/73
f 6/73/73 8/70/70 4/71/71
f 6/73/73 4/71/71 2/72/72
f 26/80/80 30/81/81 28/79/79
f 28/79/79 30/81/81 32/82/82
f 56/83/83 52/84/84 54/96/96
f 54/96/96 52/84/84 50/95/95
f 50/95/95 52/84/84 48/85/85
f 50/95/95 48/85/85 46/94/94
f 46/94/94 48/85/85 42/93/93
f 42/93/93 48/85/85 44/86/86
f 42/93/93 44/86/86 38/92/92
f 38/92/92 44/86/86 40/87/87
f 38/92/92 40/87/87 36/88/88
f 38/92/92 36/88/88 34/91/91
f 34/91/91 36/88/88 32/89/89
f 34/91/91 32/89/89 30/90/90
f 55/98/98 56/99/99 53/97/97
f 53/97/97 56/99/99 54/100/100
f 51/102/102 47/103/103 55/101/101
f 55/101/101 47/103/103 43/104/104
f 55/101/101 43/104/104 39/105/105
f 39/105/105 35/106/106 55/101/101
f 55/101/101 35/106/106 31/107/107
f 55/101/101 31/107/107 32/122/122
f 32/122/122 31/107/107 28/121/121
f 28/121/121 31/107/107 27/108/108
f 28/121/121 27/108/108 4/115/115
f 4/115/115 27/108/108 3/114/114
f 3/114/114 27/108/108 23/109/109
f 3/114/114 23/109/109 19/110/110
f 19/110/110 15/111/111 3/114/114
f 3/114/114 15/111/111 11/112/112
f 3/114/114 11/112/112 7/113/113
f 8/116/116 12/117/117 4/115/115
f 4/115/115 12/117/117 16/118/118
f 4/115/115 16/118/118 20/119/119
f 20/119/119 24/120/120 4/115/115
f 4/115/115 24/120/120 28/121/121
f 55/101/101 32/122/122 56/128/128
f 56/128/128 32/122/122 36/123/123
f 56/128/128 36/123/123 40/124/124
f 40/124/124 44/125/125 56/128/128
f 56/128/128 44/125/125 48/126/126
f 56/128/128 48/126/126 52/127/127

# 56 vertices
# 128 texture params
# 128 normals
# 108 facets

# 1 groups
